<?xml version="1.0" encoding="UTF-8" standalone="no"?>
<!DOCTYPE svg PUBLIC "-//W3C//DTD SVG 1.0//EN"
"http://www.w3.org/TR/2001/REC-SVG-20010904/DTD/svg10.dtd">
<!--
  Created by Aurelio A. Heckert (aurelio@im.ufba.br)
  with Sodipodi ("http://www.sodipodi.com")
-->
<svg
   xmlns="http://www.w3.org/2000/svg"
   xmlns:xlink="http://www.w3.org/1999/xlink"
   version="1.0"
   x="0"
   y="0"
   width="744.094971"
   height="1052.36255"
   viewBox="0 0 384 600"
   id="svg559">
  <defs
     id="defs562">
    <linearGradient
       id="linearGradient32">
      <stop
         style="stop-color:#007fff;stop-opacity:1.0000;"
         offset="0"
         id="stop33" />
      <stop
         style="stop-color:#004ccc;stop-opacity:1.0000;"
         offset="1"
         id="stop34" />
    </linearGradient>
    <linearGradient
       id="linearGradient28">
      <stop
         style="stop-color:#ffff19;stop-opacity:1.0000;"
         offset="0"
         id="stop29" />
      <stop
         style="stop-color:#ffcc00;stop-opacity:1.0000;"
         offset="1"
         id="stop30" />
    </linearGradient>
    <linearGradient
       id="linearGradient22">
      <stop
         style="stop-color:#00a600;stop-opacity:1.0000;"
         offset="0"
         id="stop23" />
      <stop
         style="stop-color:#007300;stop-opacity:1.0000;"
         offset="1"
         id="stop24" />
    </linearGradient>
    <linearGradient
       x1="0"
       y1="0"
       x2="1"
       y2="1"
       id="linearGradient25"
       xlink:href="#linearGradient22" />
    <linearGradient
       x1="0"
       y1="0"
       x2="1"
       y2="1"
       id="linearGradient26"
       xlink:href="#linearGradient22" />
    <linearGradient
       x1="0"
       y1="0"
       x2="1"
       y2="1"
       id="linearGradient27"
       xlink:href="#linearGradient28" />
    <linearGradient
       x1="0"
       y1="0"
       x2="1"
       y2="1"
       id="linearGradient31"
       xlink:href="#linearGradient32" />
    <linearGradient
       x1="0"
       y1="0"
       x2="1"
       y2="1"
       id="linearGradient46"
       xlink:href="#linearGradient28" />
    <linearGradient
       x1="0"
       y1="0"
       x2="1"
       y2="1"
       id="linearGradient47"
       xlink:href="#linearGradient28" />
    <linearGradient
       x1="0"
       y1="0"
       x2="1"
       y2="1"
       id="linearGradient48"
       xlink:href="#linearGradient28" />
    <linearGradient
       x1="0"
       y1="0"
       x2="1"
       y2="1"
       id="linearGradient49"
       xlink:href="#linearGradient28" />
    <linearGradient
       x1="0"
       y1="0"
       x2="1"
       y2="1"
       id="linearGradient50"
       xlink:href="#linearGradient32" />
  </defs>
  <g
     transform="matrix(0.921435,0,0,0.994561,50.80005,-0.911308)"
     style="font-size:12.000;"
     id="g54">
    <path
       d="M 210.7530 289.8940 C 226.6930 320.6420 229.7160 329.3060 241.0720 323.3870 L 238.5720 310.3110 L 210.7530 289.8940 z "
       style="fill:url(#linearGradient48);fill-rule:evenodd;"
       id="path41" />
    <path
       d="M 223.3690 251.4260 L 221.2850 286.1700 L 239.9390 278.6700 L 227.8560 246.4260 L 223.3690 251.4260 z "
       style="fill:url(#linearGradient49);fill-rule:evenodd;"
       id="path42" />
    <path
       d="M 200.0860 177.1700 C 207.0290 192.9180 202.7240 204.4990 185.0850 211.9150 C 201.5800 213.4420 217.6600 208.7200 228.7380 201.0810 L 225.8220 189.2530 L 218.0340 183.2110 L 211.4950 183.0030 L 208.2910 177.7950 L 200.0860 177.1700 z "
       style="fill:url(#linearGradient47);fill-rule:evenodd;"
       id="path43" />
    <path
       d="M 178.5800 58.01260 C 150.9410 49.31600 114.1360 71.86950 110.6630 101.9230 L 173.4830 90.25630 L 179.3160 103.8460 L 189.3650 105.5130 L 194.3890 100.0960 L 178.5800 58.01260 z "
       style="fill:url(#linearGradient46);fill-rule:evenodd;"
       id="path44" />
    <path
       d="M 236.6270 202.0520 L 224.8480 207.3950 L 209.6980 206.6990 L 199.7740 195.4650 L 156.5370 206.1490 L 158.8980 225.5150 C 156.6410 215.3660 141.6500 214.1050 125.1700 213.2890 L 115.6560 208.1220 L 89.95290 199.5750 C 89.38840 216.7230 87.75130 237.6520 77.64960 254.8180 C 78.93900 228.9740 63.86220 208.0180 40.93660 224.3270 L 23.81900 247.8020 L -31.82400 302.8180 C -21.94740 304.4680 -15.36430 302.2590 -15.77490 316.1070 C -7.859550 306.8010 -17.53180 299.3310 -7.487980 291.1160 C 7.164830 291.2200 18.14640 303.6140 24.23380 324.8950 C 26.64180 304.9860 25.15360 295.9600 19.79870 284.0870 C 44.71230 304.1680 55.48940 320.4400 59.05420 364.2090 C 65.53110 333.5490 62.73890 308.0610 51.04270 276.1460 C 58.99120 286.9030 91.21540 348.7250 86.25040 421.6330 L 121.0590 265.6780 L 102.9700 385.7650 C 119.0390 326.9980 162.1720 303.2060 195.8830 316.1980 L 246.4630 335.6910 L 279.2270 354.5630 L 289.1020 352.9270 L 380.9670 399.6730 L 289.2190 345.6410 L 280.3600 346.1540 L 234.1430 308.1060 L 170.4530 289.7330 L 112.2590 249.0340 L 157.7090 237.8090 L 163.3550 238.7450 C 190.2690 234.1530 192.4960 228.8710 190.9140 220.6500 C 197.5660 219.8610 206.2930 222.8800 208.2790 228.9370 L 221.8240 229.5160 L 242.0760 246.0130 L 269.2250 253.4930 L 240.7400 233.3740 L 237.9180 227.2670 L 249.4640 225.6990 L 273.5250 241.1580 L 278.9390 232.7530 L 250.2040 206.1390 L 236.6270 202.0520 z "
       transform="matrix(0.272941,0.962031,-0.962031,0.272941,397.9170,69.08740)"
       style="fill:url(#linearGradient26);fill-rule:evenodd;"
       id="path6" />
    <path
       d="M 106.8640 71.99900 L 99.59950 79.55250 L 92.33460 92.05180 L 87.28080 103.5990 L 87.91250 105.4470 L 97.80390 109.0610 C 102.7410 110.8650 102.6020 120.9980 95.26490 122.9470 C 102.5340 123.4710 103.9230 115.6980 107.0060 118.7620 L 114.3740 126.0850 L 119.0200 127.3450 L 124.8910 122.2790 L 128.7430 115.3380 L 130.7960 107.0230 L 132.0600 101.3720 L 135.0600 100.0960 L 129.6440 99.79870 L 126.4400 92.27320 L 117.6430 91.77270 C 112.1240 91.45870 108.1980 94.79960 102.8440 97.73960 C 100.3030 87.00360 108.6580 71.51220 121.2780 71.80870 L 115.6500 69.71640 L 106.8640 71.99900 z "
       transform="matrix(2.638260,0,0,2.190490,-160.8740,-113.6800)"
       style="fill:url(#linearGradient25);fill-rule:evenodd;"
       id="path21" />
    <path
       d="M 121.6300 246.8440 C 114.5770 264.3560 102.1740 271.8000 90.54240 275.1920 L 124.8020 283.3490 C 129.2870 299.6710 128.6970 315.9920 128.1070 332.3130 L 130.7770 332.8180 L 131.7270 279.7350 L 139.6580 226.6520 C 134.8560 212.8550 128.7850 193 94.79860 191.3170 C 123.4100 203.7680 128.0500 229.3310 121.6300 246.8440 z "
       transform="matrix(2.064880,0,0,1.297620,-106.0810,-50.42660)"
       style="fill:url(#linearGradient27);fill-rule:evenodd;"
       id="path9" />
    <path
       d="M 91.78999 123.6075 L 70.20238 119.4698 C 65.74978 118.6164 69.42678 110.9775 71.09402 106.8296 C 75.61338 95.16156 86.04075 78.72849 90.66407 72.92162 C 99.96234 60.81861 108.6758 51.89317 120.6772 43.32231 C 124.2365 40.90627 132.0643 39.01564 136.2564 38.11143 C 139.4614 37.42014 149.5071 37.87053 153.3118 38.97101 C 157.1836 39.74533 161.2062 40.94315 164.6251 42.88718 C 168.6034 45.14936 172.6243 47.93682 175.9277 51.16526 C 179.0061 54.17360 181.7731 58.03184 184.1952 61.59763 C 186.9946 65.71909 188.6776 70.12230 190.7435 74.65146 C 192.4487 78.38974 193.9876 82.42550 195.0840 86.39993 C 196.3083 90.83798 197.6679 95.36167 198.1299 99.88886 C 198.3932 102.4688 199.6741 106.6864 197.2597 107.7212 L 188.1220 111.6375 L 186.8166 118.5995 C 186.1435 122.1890 186.3002 125.9271 185.5112 129.4777 C 184.5597 133.7594 183.3243 138.0920 181.5951 142.0964 C 180.5685 144.4739 179.0928 146.7744 177.2438 148.6233 L 168.1061 157.7610 L 179.8546 162.1123 L 180.7248 157.7610 L 184.2058 158.1961 L 188.5571 167.3338 L 196.3894 167.7689 L 203.7866 174.2959 L 209.5855 175.2135 L 212.0540 180.8228 L 218.1458 179.0823 L 221.1917 184.7389 L 227.2835 185.6092 L 229.0240 193.4415 L 232.9402 199.5333 L 232.0699 204.7548 L 234.6807 210.8466 L 233.8104 218.6789 L 236.4212 223.0302 L 232.7980 229.1220 L 235.1158 233.0381 L 230.7172 237.0017 L 234.2456 240.0002 L 231.1997 244.3515 L 235.4476 253.0540 L 238.5410 260.9337 L 242.0779 273.9402 L 246.4292 275.2456 L 267.7504 313.1017 L 266.8802 318.3232 L 264.2694 323.9799 L 260.3533 327.0258 L 263.8343 342.2553 L 271.6666 352.6983 L 270.3612 367.9278 L 266.9276 370.5861 L 251.1682 404.5734 L 239.2300 400.0325 L 247.4027 373.1494 L 246.2396 371.3615 L 244.6886 362.7063 L 241.2076 366.1873 L 229.4592 399.6922 L 225.1079 398.8219 L 225.9781 370.1035 L 229.8943 358.3550 L 235.1158 347.4768 L 235.5510 343.1255 L 233.3753 335.2932 L 224.6727 332.2473 L 207.4183 290.2769 L 209.1588 287.2311 L 194.5336 262.8900 L 190.7122 252.9684 L 179.8546 283.9481 L 170.7169 312.2314 L 172.4574 330.5068 L 169.4115 385.3329 L 162.4494 387.9437 L 147.6551 435.8078 L 149.8308 439.2888 L 115.5537 552.2433 L 142.8687 442.3347 L 138.9526 435.8078 L 153.3118 397.0814 L 143.7390 399.6922 L 136.7769 397.9517 L 144.1741 396.2112 L 154.6172 390.5545 L 155.4874 380.9817 L 160.2738 374.0196 L 164.1899 330.9419 L 162.0143 317.0178 L 151.5713 318.7584 L 136.7769 318.7584 L 151.1361 315.7125 L 162.8846 310.9261 L 168.9764 282.2076 L 180.3639 239.9230 L 186.8909 236.0069 L 192.5475 236.8772 L 198.8849 260.4774 L 209.1401 276.5792 L 219.3954 285.9256 L 213.2646 290.5699 L 227.7186 328.7189 L 236.8090 330.2224 L 239.9022 343.1255 L 238.5968 348.7822 L 229.4592 369.6683 L 228.1538 394.9058 L 238.5968 364.4468 L 242.9481 359.2253 L 247.7345 359.6604 L 249.2855 367.8805 L 254.5070 368.3630 L 251.8014 372.3265 L 242.7112 397.4691 L 249.9102 400.1273 L 262.5289 370.1035 L 258.5654 368.7507 L 266.8802 364.8819 L 266.0099 355.3091 L 258.6127 347.0417 L 254.6966 331.8122 L 254.6966 326.5907 L 246.4292 328.3312 L 257.3074 321.3691 L 261.6586 316.1476 L 248.6048 319.1935 L 252.9561 314.8422 L 260.7884 311.7963 L 241.6427 278.2915 L 229.4592 281.6776 L 237.2915 275.2456 L 232.4966 264.4147 L 229.0155 254.7472 L 225.5430 246.5271 L 227.7186 241.3056 L 225.2975 237.5401 L 228.2960 233.3311 L 226.6588 229.8974 L 229.8943 226.0761 L 228.2960 220.0402 L 230.3294 214.7628 L 227.7186 212.1520 L 228.5889 203.8846 L 225.5904 200.6491 L 225.1079 192.1361 L 219.8863 190.8307 L 216.8404 184.3038 L 210.7487 186.0443 L 207.2676 180.3876 L 202.4812 180.3876 L 195.0840 172.9905 L 187.2517 173.8607 L 178.9843 167.3338 L 165.4953 162.9825 L 156.7928 166.8987 C 154.7912 167.7994 152.3343 168.2343 150.2659 167.7689 C 146.5326 166.9289 142.2606 165.7102 139.3877 162.9825 L 122.0116 146.4846 L 140.6931 160.3718 C 143.6379 162.5609 147.7312 163.7632 151.1361 163.8528 C 153.2428 163.9082 155.5256 162.3090 157.2279 160.8069 L 164.6251 154.2800 L 150.2659 152.9746 L 141.9985 150.7989 L 148.5254 148.1882 L 162.4494 148.1882 L 168.5412 151.6692 L 172.8925 145.5774 C 174.3257 143.5710 175.4050 141.3103 176.3735 139.0505 C 177.5807 136.2338 179.0800 133.4026 179.4194 130.3480 L 180.2897 122.5157 L 173.3276 122.9508 L 167.6710 120.7751 L 168.9764 113.8131 L 173.3276 109.8969 L 179.8546 110.7672 L 183.7707 108.1563 L 178.9843 106.4158 C 176.3117 105.4439 174.0786 90.73318 170.8237 90.32681 L 153.3118 88.14049 L 174.2513 87.70535 C 176.3304 87.66216 178.0615 98.46500 180.7354 102.4569 C 181.2096 103.2984 185.5066 104.6002 187.2625 104.2723 C 192.9190 103.2950 190.6799 101.8995 190.7328 99.88886 C 190.8249 96.38783 189.8919 92.62383 188.9709 89.01068 C 188.0063 85.22666 186.7730 80.95658 185.5005 77.27292 C 184.0172 72.97923 182.4798 69.02481 180.2791 65.07867 C 178.2735 61.48262 175.7188 57.62882 172.8819 54.64630 C 170.0623 51.68209 166.3843 49.30642 162.8846 47.23841 C 160.0025 45.53534 156.1689 43.69322 152.8874 42.90854 C 149.4969 42.09779 138.6773 41.48884 135.8639 42.02760 C 131.8603 42.79423 125.8533 44.19282 122.4177 46.36822 C 113.1571 51.96317 100.0449 64.60571 92.82902 75.08659 C 88.66940 80.88369 79.65063 93.08236 74.11855 107.2861 C 73.00616 110.2275 70.23738 115.7631 73.24830 116.8590 L 91.78999 123.6075 z M 164.2267 139.5367 L 162.5006 130.2720 L 161.1018 137.5172 L 158.2671 139.3103 L 164.2267 139.5367 z M 131.5554 117.7292 L 138.9526 122.0805 L 147.6551 123.3859 L 153.3118 118.5995 L 148.5254 112.0726 L 141.1282 110.7672 L 131.5554 117.7292 z "
       style="stroke-width:1.740512;"
       id="Sem nome" />
    <path
       d="M -128.1340 73.54250 L -125.5780 73.54250 L -125.5780 72.04250 L -132.5860 72.04250 L -132.5860 73.54250 L -129.9340 73.54250 L -129.9340 80.79050 L -128.1340 80.79050 L -128.1340 73.54250 z M -116.6620 80.79050 L -114.2380 72.04250 L -116.1460 72.04250 L -117.4540 78.60650 L -118.8700 72.04250 L -120.6460 72.04250 L -122.0020 78.59450 L -123.3580 72.04250 L -125.2660 72.04250 L -122.7940 80.79050 L -121.1740 80.79050 L -119.7460 73.96250 L -118.2820 80.79050 L -116.6620 80.79050 z M -111.6100 74.31050 L -113.2900 74.31050 L -113.2900 80.79050 L -111.6100 80.79050 L -111.6100 74.31050 z M -111.6100 72.04250 L -113.2900 72.04250 L -113.2900 73.54250 L -111.6100 73.54250 L -111.6100 72.04250 z M -108.3700 76.83050 L -108.3700 72.04250 L -110.0500 72.04250 L -110.0500 80.79050 L -108.3700 80.79050 L -108.3700 78.66650 L -107.6980 77.93450 L -106.1500 80.79050 L -104.1820 80.79050 L -106.5460 76.75850 L -104.3380 74.31050 L -106.2460 74.31050 L -108.3700 76.83050 z M -101.6020 74.31050 L -103.2820 74.31050 L -103.2820 80.79050 L -101.6020 80.79050 L -101.6020 74.31050 z M -101.6020 72.04250 L -103.2820 72.04250 L -103.2820 73.54250 L -101.6020 73.54250 L -101.6020 72.04250 z M -99.76550 80.79050 L -95.82950 80.79050 C -94.82150 80.79050 -94.14950 80.59850 -93.62150 80.15450 C -93.09350 79.71050 -92.75750 78.96650 -92.75750 78.27050 C -92.75750 77.40650 -93.22550 76.72250 -94.20950 76.14650 C -93.34550 75.59450 -93.00950 75.09050 -93.00950 74.34650 C -93.00950 73.74650 -93.30950 73.11050 -93.80150 72.67850 C -94.31750 72.23450 -94.92950 72.04250 -95.86550 72.04250 L -99.76550 72.04250 L -99.76550 80.79050 z M -97.96550 73.54250 L -96.00950 73.54250 C -95.18150 73.54250 -94.73750 73.89050 -94.73750 74.53850 C -94.73750 75.17450 -95.18150 75.52250 -96.00950 75.52250 L -97.96550 75.52250 L -97.96550 73.54250 z M -97.96550 77.02250 L -95.81750 77.02250 C -94.94150 77.02250 -94.48550 77.41850 -94.48550 78.16250 C -94.48550 78.89450 -94.94150 79.29050 -95.81750 79.29050 L -97.96550 79.29050 L -97.96550 77.02250 z M -91.32950 74.31050 L -91.32950 80.79050 L -89.64950 80.79050 L -89.64950 77.34650 C -89.64950 76.36250 -89.15750 75.87050 -88.17350 75.87050 C -87.99350 75.87050 -87.87350 75.88250 -87.64550 75.91850 L -87.64550 74.21450 C -87.74150 74.20250 -87.80150 74.20250 -87.84950 74.20250 C -88.61750 74.20250 -89.28950 74.70650 -89.64950 75.58250 L -89.64950 74.31050 L -91.32950 74.31050 z M -81.12950 80.58650 C -81.42950 80.31050 -81.51350 80.13050 -81.51350 79.79450 L -81.51350 76.19450 C -81.51350 74.87450 -82.41350 74.20250 -84.16550 74.20250 C -85.91750 74.20250 -86.82950 74.94650 -86.93750 76.44650 L -85.31750 76.44650 C -85.23350 75.77450 -84.95750 75.55850 -84.12950 75.55850 C -83.48150 75.55850 -83.15750 75.77450 -83.15750 76.20650 C -83.15750 76.42250 -83.26550 76.61450 -83.44550 76.71050 C -83.67350 76.83050 -83.67350 76.83050 -84.50150 76.96250 L -85.17350 77.08250 C -86.45750 77.29850 -87.08150 77.95850 -87.08150 79.12250 C -87.08150 79.67450 -86.92550 80.13050 -86.62550 80.45450 C -86.25350 80.83850 -85.68950 81.06650 -85.11350 81.06650 C -84.39350 81.06650 -83.73350 80.75450 -83.14550 80.14250 C -83.14550 80.47850 -83.10950 80.59850 -82.95350 80.79050 L -81.12950 80.79050 L -81.12950 80.58650 z M -83.15750 78.18650 C -83.15750 79.15850 -83.63750 79.71050 -84.48950 79.71050 C -85.05350 79.71050 -85.40150 79.41050 -85.40150 78.93050 C -85.40150 78.42650 -85.13750 78.18650 -84.44150 78.04250 L -83.86550 77.93450 C -83.42150 77.85050 -83.34950 77.82650 -83.15750 77.73050 L -83.15750 78.18650 z M -74.68550 76.39850 C -74.70950 75.03050 -75.76550 74.20250 -77.50550 74.20250 C -79.14950 74.20250 -80.16950 75.03050 -80.16950 76.36250 C -80.16950 76.79450 -80.03750 77.16650 -79.80950 77.41850 C -79.58150 77.64650 -79.37750 77.75450 -78.75350 77.95850 L -76.74950 78.58250 C -76.32950 78.71450 -76.18550 78.84650 -76.18550 79.11050 C -76.18550 79.50650 -76.65350 79.74650 -77.43350 79.74650 C -77.86550 79.74650 -78.21350 79.66250 -78.42950 79.51850 C -78.60950 79.38650 -78.68150 79.25450 -78.75350 78.90650 L -80.39750 78.90650 C -80.34950 80.32250 -79.30550 81.06650 -77.33750 81.06650 C -76.43750 81.06650 -75.75350 80.87450 -75.27350 80.49050 C -74.79350 80.10650 -74.50550 79.50650 -74.50550 78.87050 C -74.50550 78.03050 -74.92550 77.49050 -75.77750 77.23850 L -77.90150 76.62650 C -78.36950 76.48250 -78.48950 76.38650 -78.48950 76.12250 C -78.48950 75.76250 -78.10550 75.52250 -77.51750 75.52250 C -76.71350 75.52250 -76.31750 75.81050 -76.30550 76.39850 L -74.68550 76.39850 z M -71.58950 74.31050 L -73.26950 74.31050 L -73.26950 80.79050 L -71.58950 80.79050 L -71.58950 74.31050 z M -71.58950 72.04250 L -73.26950 72.04250 L -73.26950 73.54250 L -71.58950 73.54250 L -71.58950 72.04250 z M -68.25350 72.04250 L -69.93350 72.04250 L -69.93350 80.79050 L -68.25350 80.79050 L -68.25350 72.04250 z "
       transform="matrix(1.017060,-3.569560,3.569560,1.017060,0,0)"
       style="font-weight:bold;fill-rule:evenodd;font-family:Helvetica;"
       id="path53" />
  </g>
</svg>
